<?xml version="1.0" standalone="no"?><!DOCTYPE svg PUBLIC "-//W3C//DTD SVG 1.1//EN" "http://www.w3.org/Graphics/SVG/1.1/DTD/svg11.dtd"><svg xmlns="http://www.w3.org/2000/svg" xmlns:xlink="http://www.w3.org/1999/xlink"><symbol class="aicon" viewBox="0 0 1024 1024" id="icon-close"><defs><style/></defs><path d="M512 434.56L221.376 143.936c-21.056-21.056-55.808-21.184-77.248.192-21.504 21.568-21.44 56-.192 77.248L434.56 512 143.936 802.624c-21.056 21.056-21.184 55.872.192 77.248 21.504 21.504 55.936 21.44 77.248.192L512 589.44l290.624 290.624c21.056 21.056 55.872 21.184 77.248-.192 21.504-21.504 21.44-55.936.192-77.248L589.44 512l290.624-290.624c21.056-21.056 21.184-55.872-.192-77.248-21.504-21.504-55.936-21.44-77.248-.192L512 434.56zm0 0"/></symbol></svg>