<svg width="24" height="18" viewBox="0 0 24 18" xmlns="http://www.w3.org/2000/svg"><g fill="none" fill-rule="evenodd"><path d="M1 0h22a1 1 0 011 1v16a1 1 0 01-1 1H1a1 1 0 01-1-1V1a1 1 0 011-1z" fill="#F7F7F7"/><path d="M16 0h7a1 1 0 011 1v16a1 1 0 01-1 1h-7V0zM1 0h7v18H1a1 1 0 01-1-1V1a1 1 0 011-1z" fill="#008751"/><path d="M1 18h22a1 1 0 001-1V1a1 1 0 00-1-1H1a1 1 0 00-1 1v16a1 1 0 001 1z" fill="#DE2910"/><path fill="#FFDE00" d="M6.944 6.056L6 3l-.944 3.056H2l2.472 1.888L3.528 11 6 9.111 8.472 11l-.944-3.056L10 6.056zm5.202-2.042L12.75 5l.103-1.146L14 3.596l-1.082-.45L13.02 2l-.772.868-1.082-.45.605.986-.772.868zm3 2.84L15.31 8l.544-1.023L17 7.175l-.81-.83.544-1.024-1.044.51L14.88 5l.164 1.146-1.044.51zm.951 3.957l.903-.734-1.146.042L15.461 9l-.315 1.146-1.146.043.951.665L14.636 12l.903-.735.951.666zm-3.209 2.335L12.943 12l-.742.896-1.112-.405.653.958-.742.896 1.146-.303.653.958.055-1.146L14 13.551z"/><path d="M1 1v16h22V1H1zm0-1h22a1 1 0 011 1v16a1 1 0 01-1 1H1a1 1 0 01-1-1V1a1 1 0 011-1z" fill="#000" fill-rule="nonzero" opacity=".2"/></g></svg>