<svg width="24" height="24" viewBox="0 0 24 24" fill="none" xmlns="http://www.w3.org/2000/svg"><path d="M22 10h-1.231a8.942 8.942 0 00-1.156-2.785l.872-.872a2 2 0 00-2.828-2.828l-.872.872A8.943 8.943 0 0014 3.231V2a2 2 0 10-4 0v1.231a8.943 8.943 0 00-2.785 1.156l-.872-.872a2 2 0 00-2.828 2.828l.872.872A8.943 8.943 0 003.231 10H2a2 2 0 100 4h1.231a8.943 8.943 0 001.156 2.785l-.872.872a2 2 0 002.828 2.828l.872-.872c.856.54 1.798.931 2.785 1.156V22a2 2 0 004 0v-1.231a8.942 8.942 0 002.785-1.156l.872.872a2 2 0 002.828-2.828l-.872-.872A8.942 8.942 0 0020.769 14H22a2 2 0 000-4zm-10 6a4 4 0 110-8 4 4 0 010 8z" fill="#D0D1D3"/></svg>