<svg width="16" height="12" viewBox="0 0 16 12" xmlns="http://www.w3.org/2000/svg"><g fill="none" fill-rule="evenodd"><rect fill="#DE2910" width="16" height="12" rx="1"/><path fill="#FFDE00" d="M5.09 3.91L4.5 2l-.59 1.91H2l1.545 1.18L2.955 7 4.5 5.82 6.045 7l-.59-1.91L7 3.91zm3.206 3.244l-.037.705.741.25-.764.186L8.2 9l-.435-.59L7 8.597l.495-.551-.436-.59.742.25.495-.552zm1.678-1.846l.262.689L11 5.97l-.602.452.262.69-.634-.41-.602.452.21-.705L9 6.039l.764-.026.21-.705zm-.388-2.462l.54.511.697-.313-.363.63.54.51-.764-.121-.362.63-.11-.706L9 3.865l.696-.314-.11-.705zM8.347 1l-.068.705.721.277-.764.159-.069.705-.403-.607L7 2.398l.515-.534-.404-.607.722.277L8.347 1z"/><path d="M1 1v10h14V1H1zm0-1h14a1 1 0 011 1v10a1 1 0 01-1 1H1a1 1 0 01-1-1V1a1 1 0 011-1z" fill="#000" fill-rule="nonzero" opacity=".2"/></g></svg>